<?xml version="1.0" encoding="UTF-8" standalone="no"?>
<!-- Created with Inkscape (http://www.inkscape.org/) -->

<svg
   xmlns:dc="http://purl.org/dc/elements/1.1/"
   xmlns:cc="http://creativecommons.org/ns#"
   xmlns:rdf="http://www.w3.org/1999/02/22-rdf-syntax-ns#"
   xmlns:svg="http://www.w3.org/2000/svg"
   xmlns="http://www.w3.org/2000/svg"
   xmlns:sodipodi="http://sodipodi.sourceforge.net/DTD/sodipodi-0.dtd"
   xmlns:inkscape="http://www.inkscape.org/namespaces/inkscape"
   width="210mm"
   height="297mm"
   viewBox="0 0 210 297"
   version="1.1"
   id="svg8"
   inkscape:version="0.92.4 (5da689c313, 2019-01-14)"
   sodipodi:docname="drawing.svg">
  <defs
     id="defs2">
    <clipPath
       id="clipPath3733"
       clipPathUnits="userSpaceOnUse">
      <path
         style="clip-rule:evenodd"
         inkscape:connector-curvature="0"
         id="path3731"
         d="m 67.199997,126.24 v 924.3201 H 726.56 V 126.24 Z" />
    </clipPath>
    <clipPath
       id="clipPath3753"
       clipPathUnits="userSpaceOnUse">
      <path
         style="clip-rule:evenodd"
         inkscape:connector-curvature="0"
         id="path3751"
         d="M 128.48,501.44 H 619.67999 V 660.15997 H 128.48 Z" />
    </clipPath>
    <clipPath
       id="clipPath3763"
       clipPathUnits="userSpaceOnUse">
      <path
         style="clip-rule:evenodd"
         inkscape:connector-curvature="0"
         id="path3761"
         d="M 128.48,501.44 H 619.67999 V 663.20001 H 128.48 Z" />
    </clipPath>
    <clipPath
       id="clipPath3827"
       clipPathUnits="userSpaceOnUse">
      <path
         style="clip-rule:evenodd"
         inkscape:connector-curvature="0"
         id="path3825"
         d="m -571.84003,-466.39999 v 924.32 H 87.519997 v -924.32 z" />
    </clipPath>
    <clipPath
       id="clipPath3843"
       clipPathUnits="userSpaceOnUse">
      <path
         style="clip-rule:evenodd"
         inkscape:connector-curvature="0"
         id="path3841"
         d="M -571.84003,-486.88 V 437.44 H 87.519997 v -924.32 z" />
    </clipPath>
    <clipPath
       id="clipPath3859"
       clipPathUnits="userSpaceOnUse">
      <path
         style="clip-rule:evenodd"
         inkscape:connector-curvature="0"
         id="path3857"
         d="M 0,-0.32 H 659.03998 V 264.32001 H 0 Z" />
    </clipPath>
  </defs>
  <sodipodi:namedview
     id="base"
     pagecolor="#ffffff"
     bordercolor="#666666"
     borderopacity="1.0"
     inkscape:pageopacity="0.0"
     inkscape:pageshadow="2"
     inkscape:zoom="1.4"
     inkscape:cx="273.67383"
     inkscape:cy="770.19635"
     inkscape:document-units="mm"
     inkscape:current-layer="layer1"
     showgrid="false"
     inkscape:window-width="1920"
     inkscape:window-height="1001"
     inkscape:window-x="2391"
     inkscape:window-y="-9"
     inkscape:window-maximized="1" />
  <metadata
     id="metadata5">
    <rdf:RDF>
      <cc:Work
         rdf:about="">
        <dc:format>image/svg+xml</dc:format>
        <dc:type
           rdf:resource="http://purl.org/dc/dcmitype/StillImage" />
        <dc:title></dc:title>
      </cc:Work>
    </rdf:RDF>
  </metadata>
  <g
     inkscape:label="Layer 1"
     inkscape:groupmode="layer"
     id="layer1">
    <g
       style=""
       transform="matrix(0.26458333,0,0,0.26458333,-7.1119963,-77.172235)"
       inkscape:label="populism_trends"
       id="g3721">
      <g
         id="g3723">
        <path
           inkscape:connector-curvature="0"
           id="path3725"
           style="fill:#ffffff;fill-opacity:1;fill-rule:nonzero;stroke:none"
           d="M 67.68,456.48001 H 725.91998 V 720.47998 H 67.68 Z" />
      </g>
      <g
         id="g3727">
        <g
           clip-path="url(#clipPath3733)"
           id="g3729">
          <g
             transform="translate(128,624.96002)"
             id="g3735">
            <path
               inkscape:connector-curvature="0"
               id="path3737"
               style="fill:#d9d9d9;fill-opacity:1;fill-rule:nonzero;stroke:none"
               d="M 0,0 H 492.16 V 0.96 H 0 Z M 0,-41.439999 H 492.16 V -40.48 H 0 Z m 0,-41.280002 h 492.16 v 0.959999 H 0 Z M 0,-124 h 492.16 v 0.96 H 0 Z" />
          </g>
          <g
             transform="translate(128.48,501.44)"
             id="g3739">
            <path
               inkscape:connector-curvature="0"
               id="path3741"
               style="fill:#f2f2f2;fill-opacity:1;fill-rule:nonzero;stroke:none"
               d="M 0,0 V 165.28 H -0.96 V 0 Z M 0,0 V 165.28 H -0.96 V 0 Z M 49.119999,0 V 165.28 H 48.32 V 0 Z m 0,0 V 165.28 H 48.32 V 0 Z M 98.400002,0 V 165.28 H 97.599998 V 0 Z m 0,0 V 165.28 H 97.599998 V 0 Z M 147.52,0 v 165.28 h -0.8 V 0 Z m 0,0 v 165.28 h -0.8 V 0 Z m 49.28,0 v 165.28 h -0.96 V 0 Z m 0,0 v 165.28 h -0.96 V 0 Z m 49.28,0 v 165.28 h -0.96001 V 0 Z m 0,0 v 165.28 h -0.96001 V 0 Z m 49.12001,0 v 165.28 h -0.96002 V 0 Z m 0,0 v 165.28 h -0.96002 V 0 Z m 49.28,0 v 165.28 h -0.96002 V 0 Z m 0,0 v 165.28 h -0.96002 V 0 Z m 49.12,0 v 165.28 h -0.96 V 0 Z m 0,0 v 165.28 h -0.96 V 0 Z M 442.88,0 v 165.28 h -0.95999 V 0 Z m 0,0 v 165.28 h -0.95999 V 0 Z M 492,0 v 165.28 h -0.79999 V 0 Z m 0,0 v 165.28 h -0.79999 V 0 Z" />
          </g>
        </g>
      </g>
      <g
         id="g3743">
        <path
           inkscape:connector-curvature="0"
           id="path3745"
           style="fill:#d9d9d9;fill-opacity:1;fill-rule:nonzero;stroke:none"
           d="m 128,666.23999 h 492.15997 v 0.96002 H 128 Z" />
      </g>
      <g
         id="g3747">
        <g
           clip-path="url(#clipPath3753)"
           id="g3749">
          <path
             inkscape:connector-curvature="0"
             id="path3755"
             style="fill:#5b9bd5;fill-opacity:0.69922001;fill-rule:nonzero;stroke:none"
             d="m 131.2,649.59998 4.16,8.16003 -1.75999,-0.64001 4.15998,-1.59998 -0.79998,0.79999 4.15998,-10.08002 4,-13.11999 c 0.16001,-0.47999 0.64,-0.79999 1.12001,-0.96003 0.64,0 1.12,0.32001 1.28,0.80005 l 4.32,8.32001 -1.28,-0.80005 h 4.16 l -1.28,0.80005 4,-9.76001 c 0.16001,-0.32001 0.31999,-0.48004 0.48,-0.64002 l 4,-3.35998 c 0.32,-0.16004 0.8,-0.32001 1.28,-0.16004 0.32,0 0.64,0.32001 0.8,0.79999 l 4.32001,9.92005 -0.80001,-0.64002 4,1.59998 c 0.32,0 0.48,0.16003 0.64,0.32 l 4,4.96003 4.16001,6.71997 4,4.96002 -1.60001,-0.47998 4.31999,-1.76001 -0.79999,0.95996 4,-13.27997 c 0,-0.15997 0.15999,-0.15997 0.15999,-0.32 l 4.16001,-6.56 c 0.16,-0.32001 0.64,-0.64002 1.11999,-0.64002 0.48001,0 0.96001,0.32001 1.12001,0.79999 l 4.16001,8.32001 -1.28002,-0.79999 H 203.84 l -0.96,0.32001 4.32,-3.35999 -0.32,0.15997 4.15999,-4.95996 c 0.16001,-0.32 0.64,-0.48004 0.96001,-0.48004 h 4.16 c 0.48,0 0.95999,0.32001 1.12,0.64002 l 4.16,6.56 4.16001,6.72003 4,4.79998 -0.32001,-0.16003 4.16,3.36005 -1.92,0.15997 4,-5.12 -0.16,0.32001 4,-9.91998 c 0.16,-0.16003 0.31999,-0.32001 0.48,-0.48004 l 4.32,-3.20001 c 0.48,-0.47998 1.28,-0.31995 1.76,0.16003 l 4.16,4.95996 -1.11999,-0.47998 h 4.15998 L 252,642.71997 l 4,-4.95996 c 0.16,-0.16003 0.32001,-0.32001 0.64001,-0.32001 l 4.15998,-1.76001 c 0.48001,-0.15997 0.96002,-0.15997 1.44,0.16004 l 4,3.35998 c 0.16,0.15997 0.32001,0.15997 0.32001,0.32001 l 4,6.56 -1.60001,-0.48004 L 273.12,644 c 0.64001,-0.32001 1.27999,0 1.6,0.64001 l 4.16,8.15998 -0.16,-0.15998 4.16,4.95997 -1.92001,-0.31995 4,-3.20001 -0.31998,0.63995 4,-14.87994 c 0.15998,-0.16004 0.31998,-0.48005 0.47999,-0.64002 l 4,-3.35998 c 0.32,-0.16004 0.80001,-0.32001 1.11999,-0.32001 0.32001,0.15997 0.80002,0.32001 0.96002,0.63995 l 4.15998,6.72003 4,4.79999 H 301.28 l 4,-4.96002 V 642.88 l 4,-6.72003 c 0.32001,-0.31994 0.64001,-0.63995 1.11999,-0.63995 0.48001,0 0.96,0.32001 1.28,0.63995 l 4,6.72003 -1.11999,-0.64001 h 4.16 c 0.48001,0 0.79999,0.16003 1.12,0.47998 l 4,4.96002 4.16,6.72003 -1.12,-0.64001 h 4 -0.48001 l 4.16001,-1.60004 -0.79999,0.96003 4.16,-16.47999 c 0.15998,-0.64001 0.63999,-1.11999 1.28,-1.11999 h 4.15998 c 0.32,0 0.80001,0.15997 0.96002,0.47998 l 4.16,4.96002 -1.60001,-0.32001 4,-1.60003 c 0.16001,-0.15998 0.32001,-0.15998 0.47999,-0.15998 h 4.32 l -1.11999,0.47998 4.16,-4.95996 c 0.32001,-0.32 0.63999,-0.48004 1.12,-0.48004 0.48001,0.16004 0.95999,0.32001 1.11999,0.79999 l 4,8.32001 -1.11999,-0.79999 h 4 l -0.79999,0.32001 4,-3.35999 c 0.31998,-0.32001 0.79999,-0.32001 1.28,-0.32001 0.32,0.15998 0.79999,0.47998 0.95999,0.96003 l 4.16,11.35998 -2.39999,-0.32001 4.16,-4.96002 c 0.31998,-0.32 0.63999,-0.47998 1.12,-0.47998 0.47998,0 0.79999,0.32001 1.11999,0.64002 l 4,6.71997 -2.56,0.48004 4.16001,-20 c 0,-0.32001 0.31998,-0.80005 0.63998,-0.96002 0.32001,-0.16004 0.80002,-0.16004 1.12,0 l 4.32001,1.76001 c 0.32,0.15997 0.48001,0.32 0.64001,0.63995 l 4.16,8.32001 -0.80001,-0.63996 4.16,1.59998 -1.76001,0.47998 4.16,-6.56 C 403.84,637.76001 404,637.44 404.16,637.44 l 4.16001,-1.76001 c 0.47998,-0.32001 1.11999,-0.15997 1.6,0.32001 l 4.15998,4.96002 -0.95999,-0.48004 h 4 c 0.32,0 0.64001,0.16003 0.80001,0.32001 l 4.15998,3.35998 c 0.16,0.16004 0.32,0.32001 0.32,0.48004 l 4.16001,8.15998 -0.79999,-0.64002 4.16,1.60004 -1.44,0.47998 4,-4.95996 -0.32001,0.63995 4.16001,-19.83996 c 0.16,-0.64002 0.63998,-1.12 1.28,-1.12 h 4.16 c 0.47998,0 0.95999,0.32001 1.11999,0.95996 l 4.16001,9.76001 -1.28,-0.79999 h 4.16 l -1.28,0.79999 4.15998,-9.76001 c 0,-0.15997 0,-0.15997 0,-0.32 l 4.16,-6.56 c 0.16001,-0.47998 0.64002,-0.63996 1.12,-0.63996 h 4.16 c 0.48001,0 0.96002,0.15998 1.12,0.63996 l 4.16,8.32 -2.07999,-0.47998 4.16001,-3.35998 -0.48001,0.79999 4.16,-18.08002 c 0,-0.64001 0.64001,-1.11999 1.28,-1.11999 0.64001,0 1.28,0.47998 1.28,1.11999 l 4.16,24.79999 -0.48001,-0.79999 4,3.35999 -2.23999,0.80004 4.32001,-24.80004 c 0,-0.31995 0.16,-0.63996 0.47998,-0.79999 l 4,-3.35999 -0.47998,0.96002 4,-102.24002 c 0.16,-0.80001 0.63998,-1.28 1.44,-1.44 0.63998,0 1.28,0.63999 1.28,1.28 l 4.16,36.32001 h -2.72 l 4,-43.04001 c 0.16,-0.63999 0.63998,-1.12 1.44,-1.12 0.63999,0 1.28,0.48001 1.28,1.28 l 4.31998,57.76001 -2.72,-0.16003 4,-21.44 c 0.16,-0.79999 0.80001,-1.12 1.44,-1.12 0.63998,0 1.28,0.48004 1.28,1.12 l 4,36.32 v -0.32 l 4,9.92004 c 0.16003,0.15997 0.16003,0.15997 0.16003,0.32001 l 4.15998,36.31994 4,16.48004 -2.56,-0.32 4.15997,-9.76001 -0.15997,0.15997 4.15997,-18.07996 4,-11.84002 c 0.32001,-0.47998 0.80005,-0.95996 1.28003,-0.95996 0.64001,0 1.12,0.31994 1.28003,0.79998 l 4.31995,10.07996 -0.15998,-0.15997 4,6.56 -2.23999,0.16003 4,-8.32001 c 0.15997,-0.48004 0.64002,-0.80005 1.27997,-0.80005 h 4 l -0.79999,0.32001 4,-3.35998 c 0.32001,-0.32001 0.79999,-0.32001 1.28003,-0.32001 0.32001,0.16003 0.79999,0.48004 0.95996,0.96002 l 4.16004,11.52002 -1.76001,-0.80005 4,-1.59998 c 0.32,0 0.64001,0 0.96002,0 l 4.15997,1.59998 c 0.32001,0.16003 0.64002,0.48004 0.79999,0.96002 l 4,13.12 -2.08002,-0.64002 4.16004,-3.35998 -0.47998,0.96002 4.15997,-34.56 4,-20 4.15997,-14.88 c 0.16004,-0.64002 0.64002,-1.12 1.44001,-1.12 0.64001,0.15998 1.11999,0.63996 1.11999,1.27997 L 598.88,597.12 l -2.72003,-0.47999 4.32001,-9.76001 c 0.16003,-0.47998 0.48004,-0.79998 0.96002,-0.79998 0.47998,-0.16004 0.96002,0 1.27997,0.47998 l 4.16003,4.79998 -0.32,-0.15997 4.15997,3.35999 h -1.75995 l 4,-3.35999 L 617.28003,588 c 0.47998,-0.47998 1.43994,-0.32001 1.91998,0.32001 0.32001,0.47998 0.32001,1.44 -0.32001,1.91998 l -4.16003,3.04004 -4,3.35998 c -0.47998,0.47999 -1.27997,0.47999 -1.75995,0 l -4,-3.35998 c -0.16003,0 -0.16003,0 -0.32001,-0.16003 l -4,-4.96003 2.23999,-0.31994 -4.16003,9.91998 c -0.15997,0.64001 -0.79999,0.95996 -1.43994,0.79999 -0.64002,0 -1.12006,-0.64002 -1.12006,-1.12 L 592,554.56 l 2.71997,0.15997 -4,14.72003 -4.15997,19.84003 -4,34.56 c 0,0.31994 -0.15998,0.63995 -0.47998,0.95996 l -4.32001,3.35998 c -0.32001,0.16004 -0.79999,0.32001 -1.12,0.16004 -0.48004,-0.16004 -0.79998,-0.47998 -0.96002,-0.96003 l -4,-13.11999 0.79999,0.79999 -4.15997,-1.59998 h 0.96002 l -4,1.59998 c -0.32001,0.16003 -0.80005,0.16003 -1.12006,0 -0.31994,-0.15998 -0.47998,-0.47998 -0.63995,-0.79999 l -4.16004,-11.67999 2.08002,0.64001 -4,3.35999 c -0.32,0.15997 -0.64001,0.32 -0.96002,0.32 h -4 l 1.12,-0.79998 -4,8.32 c -0.15998,0.47998 -0.63996,0.79999 -1.12,0.79999 -0.47998,0 -0.95996,-0.32001 -1.27997,-0.64001 l -4,-6.56 c -0.16003,0 -0.16003,-0.15997 -0.16003,-0.15997 L 538.88,597.76001 h 2.56 l -4.15997,11.35999 -4,18.23998 c 0,0 0,0.16004 -0.16003,0.16004 l -4,9.91998 c -0.15998,0.47998 -0.79999,0.79999 -1.27997,0.79999 -0.64002,0 -1.12006,-0.47998 -1.28003,-0.95996 l -4.15998,-16.80005 -4.16003,-36.32001 0.16003,0.32001 -4.16003,-9.76001 c 0,-0.15997 0,-0.31995 0,-0.47998 l -4.16,-36.32001 2.72,0.16004 -4.15998,21.44 c 0,0.63995 -0.64001,1.11999 -1.28002,1.11999 -0.79999,0 -1.28,-0.48004 -1.28,-1.28003 l -4.31998,-57.75997 h 2.72 l -4,43.04 c -0.16,0.64002 -0.64001,1.12 -1.44,1.27997 -0.64002,0 -1.28,-0.63995 -1.28,-1.27997 l -4.16,-36.32 2.72,-0.16001 -4,102.4 c 0,0.32 -0.16001,0.64001 -0.48001,0.96002 L 487.67999,614.88 488.16,614.08002 484,638.88 c 0,0.47998 -0.32001,0.79999 -0.79999,1.12 -0.48001,0.15997 -0.96002,0 -1.44,-0.32001 l -4,-3.35998 C 477.44,636.15997 477.28,635.84003 477.28,635.52002 l -4.16,-24.80005 h 2.72 l -4,18.24005 c -0.16001,0.32001 -0.32001,0.47998 -0.48001,0.79999 l -4.31998,3.20001 c -0.32001,0.32001 -0.64002,0.47998 -1.12,0.32001 -0.32,0 -0.64001,-0.32001 -0.96002,-0.64002 l -4,-8.32 1.28,0.79999 h -4.16 l 1.12002,-0.79999 -4,6.71997 0.15998,-0.15998 -4.15998,9.91999 c -0.16,0.48004 -0.64001,0.79999 -1.28,0.79999 h -4.16 c -0.48001,0 -1.12,-0.31995 -1.28,-0.79999 l -4,-9.91999 1.28,0.79999 h -4.16 l 1.27999,-0.96002 -4,19.68005 c 0,0.15998 -0.16,0.47998 -0.32,0.63996 l -4,4.96002 c -0.32001,0.32001 -0.95999,0.47998 -1.60001,0.32001 l -4.16,-1.60004 C 424.48001,654.56 424.16,654.40002 424,654.08002 l -4,-8.32001 0.32001,0.47998 -4,-3.35999 0.79999,0.32001 h -4 c -0.47999,0 -0.79999,-0.16003 -1.12,-0.48004 l -4.16,-4.95996 1.6,0.47998 -4.16,1.60004 0.64001,-0.48005 -4,6.56 c -0.48001,0.48004 -1.12002,0.79999 -1.76001,0.48004 l -4,-1.60003 c -0.32,0 -0.64001,-0.32001 -0.80001,-0.64002 l -4,-8.31994 0.64001,0.79998 -4.16,-1.76001 1.92001,-1.11999 -4.16,20 c -0.16001,0.47998 -0.48001,0.95996 -1.12,1.11999 -0.48001,0 -1.12002,-0.16003 -1.44,-0.64001 l -4,-6.71997 2.23999,0.15997 -4.16,4.96002 c -0.16001,0.32001 -0.79999,0.47999 -1.28,0.47999 -0.48001,-0.15998 -0.79999,-0.47999 -0.96,-0.96003 l -4.16,-11.35998 2.07999,0.48004 -4,3.35998 c -0.31998,0.15998 -0.63999,0.32001 -0.95999,0.32001 h -4 c -0.63999,0 -1.12,-0.32001 -1.28,-0.80005 l -4,-8.31994 2.23999,0.31994 -4.15998,4.96003 c -0.16,0.32 -0.64001,0.47998 -0.96002,0.47998 h -4.32 L 352,641.44 l -4.16,1.59998 c -0.48001,0.32 -1.12,0.16003 -1.60001,-0.32001 l -4,-4.95996 1.12,0.47998 h -4.15998 l 1.28,-0.95996 -4.16,16.47998 C 336.16,654.23999 336,654.56 335.51999,654.71997 l -4,1.60004 c -0.16,0.15997 -0.47998,0.15997 -0.63999,0.15997 h -4 c -0.48001,0 -0.95999,-0.32001 -1.11999,-0.63995 l -4,-6.40003 -4,-4.96002 0.95999,0.48004 h -4.16 c -0.48001,0 -0.95999,-0.32001 -1.12,-0.64001 l -4.16,-6.72003 h 2.39999 l -4.16,6.72003 c 0,0 0,0.15997 -0.16,0.15997 l -4,4.96002 c -0.31998,0.32001 -0.63999,0.47998 -1.12,0.47998 -0.31998,0 -0.63998,-0.15997 -0.95999,-0.47998 l -4.16,-5.11999 -4.16001,-6.72003 1.92001,0.32 -4,3.36005 0.32001,-0.64002 -4,14.71997 c 0,0.32001 -0.16,0.64002 -0.48001,0.79999 l -4,3.36005 c -0.64001,0.47998 -1.44,0.32001 -1.92001,-0.16004 l -4.15998,-4.95996 c -0.16,-0.16003 -0.16,-0.16003 -0.32,-0.32 l -4,-8.32001 1.75998,0.64001 L 269.92001,648 c -0.64001,0.32001 -1.28,0 -1.6,-0.47998 l -4,-6.56 0.16,0.32001 -4,-3.36005 1.44,0.32001 -4.32,1.60004 0.63998,-0.32001 -4.15999,4.95996 c -0.16,0.32001 -0.64,0.48004 -0.96001,0.48004 h -4.15998 c -0.32001,0 -0.80001,-0.16003 -0.96001,-0.48004 l -4.16,-4.95996 1.91999,0.15997 -4.15998,3.20001 0.31999,-0.47998 -4,9.91999 c -0.16001,0 -0.16001,0.15997 -0.16001,0.32 l -4.15998,4.95997 c -0.16001,0.32 -0.48002,0.48004 -0.96001,0.64001 -0.31999,0 -0.64,-0.15997 -0.96001,-0.32001 l -4,-3.35998 C 227.52,654.40002 227.52,654.40002 227.36,654.40002 l -4.16,-5.11999 -4.16001,-6.72003 -4,-6.56 1.12001,0.64001 H 212 l 1.11999,-0.48004 -4,4.96003 c -0.15998,0 -0.15998,0.16003 -0.31999,0.16003 l -4.16,3.35998 c -0.31999,0.15998 -0.48,0.32001 -0.8,0.32001 h -4.16001 c -0.47999,0 -0.95999,-0.32001 -1.11999,-0.80005 L 194.39999,635.84003 196.8,636 l -4,6.56 v -0.32001 l -4,13.28003 c -0.16,0.32001 -0.32,0.63995 -0.8,0.79999 l -4.16,1.76001 c -0.64,0.15997 -1.28,0 -1.6,-0.48004 l -4.16,-5.12 -4,-6.39996 -4,-4.96002 0.48,0.32 -4,-1.44 c -0.32,-0.15997 -0.64,-0.47998 -0.80001,-0.79999 l -4.15998,-10.08001 2.07998,0.47998 -4.15999,3.36004 0.48,-0.48004 -4,9.92004 c -0.32001,0.47998 -0.8,0.79999 -1.28,0.79999 h -4.16 c -0.48,0 -0.95999,-0.32001 -1.12,-0.79999 l -4.32001,-8.16003 2.56,-0.32001 -4.15999,13.44 -4,9.92005 c -0.16,0.31995 -0.48001,0.63995 -0.8,0.79999 l -4,1.59997 c -0.64,0.32001 -1.44,0 -1.75999,-0.64001 L 128.8,650.71997 c -0.32,-0.63995 0,-1.43994 0.64,-1.75995 0.64,-0.32001 1.44,-0.16003 1.76,0.63996 z" />
        </g>
      </g>
      <g
         id="g3757">
        <g
           clip-path="url(#clipPath3763)"
           id="g3759">
          <path
             inkscape:connector-curvature="0"
             id="path3765"
             style="fill:#cc5050;fill-opacity:0.51952999;fill-rule:nonzero;stroke:none"
             d="m 128.64,631.67999 4.16,-16.64001 c 0.16001,-0.63996 0.80001,-0.95996 1.28,-0.95996 0.64,0 1.28,0.32 1.44,0.95996 l 4,13.11999 h -2.55999 l 4,-11.51996 c 0.31999,-0.48004 0.79998,-0.96002 1.43998,-0.79998 0.64,0 1.12001,0.31994 1.28,0.95996 l 4,16.48004 -0.47999,-0.80005 4.16,3.36005 c 0.31999,0.15997 0.48,0.47998 0.48,0.63995 l 4.16,14.88 -2.56,-0.15997 4,-11.35998 c 0.16001,-0.64002 0.64,-0.96003 1.28,-0.96003 0.48,0 1.12,0.32001 1.28,0.79999 l 4,9.91999 -2.39999,-0.15998 4.31999,-6.56 -0.16001,0.15998 4,-9.91998 c 0.32001,-0.64002 0.80001,-0.96003 1.44001,-0.96003 0.47999,0 0.96,0.48004 1.12001,0.96003 l 4.15999,13.28002 h -2.56 l 4,-13.28002 c 0.16,-0.32001 0.47999,-0.79999 0.96,-0.79999 0.32,-0.16004 0.79999,-0.16004 1.28,0.15997 l 4,3.36005 c 0.16001,0.15997 0.32,0.31994 0.32,0.47998 l 4.32,9.91998 -0.8,-0.64001 4.16,1.76 -1.76001,0.64002 4,-8.32001 v 0.16004 l 4,-14.72003 c 0.16001,-0.64002 0.64,-0.96003 1.12001,-1.12 0.48,0 1.12,0.32001 1.28,0.64001 l 4.16001,6.56 c 0,0.15997 0.15998,0.32001 0.15998,0.47998 l 4.16001,16.47998 -2.56,0.16004 4,-28.16004 4,-28 c 0.16,-0.79999 0.8,-1.27997 1.44,-1.27997 0.64,0 1.28,0.47998 1.28,1.27997 l 4.16001,28 -1.92002,-1.11999 L 224,617.44 223.03999,618.71997 227.2,554.23999 c 0,-0.64001 0.47999,-1.27997 1.28,-1.27997 0.63999,0 1.27999,0.47998 1.44,1.27997 l 4,39.67999 4,42.88001 v -0.47998 l 4,8.32 -1.28,-0.79998 h 4.32001 l -1.28002,0.95996 4,-11.67999 c 0.16001,-0.47999 0.64002,-0.96003 1.28002,-0.96003 0.47999,0 0.95999,0.32001 1.27999,0.80005 l 4,8.32001 -2.56001,0.31995 4.16001,-19.83997 c 0,-0.64001 0.64001,-0.96002 1.28,-0.96002 0.64001,-0.15998 1.11999,0.32001 1.27999,0.96002 l 4.32001,16.47998 -1.92001,-0.79999 4,-1.76001 c 0.64001,-0.32001 1.44,0 1.76001,0.47998 l 4,6.72003 -2.4,0.47998 4,-21.59997 c 0.16001,-0.47998 0.63999,-0.96002 1.28,-0.96002 0.63999,-0.15998 1.28,0.32001 1.44,0.96002 l 4,16.64001 -2.23999,-0.64001 4.15998,-5.12 -0.31998,0.95997 4,-132.15998 c 0,-0.79999 0.63999,-1.28 1.44,-1.28 0.63999,0 1.28,0.48001 1.28,1.28 l 4.15998,117.27997 4,22.88001 -2.71998,0.16003 4.31998,-46.23999 c 0,-0.64002 0.48001,-1.28003 1.28,-1.28003 0.64001,0 1.28,0.47998 1.28,1.11999 l 4.16,24.79999 4,21.44001 v -0.31995 l 4,9.91998 -0.32,-0.48004 4,3.36005 4.16,3.20001 -1.91998,0.47998 4,-6.72003 c 0.32,-0.47998 0.79998,-0.63996 1.27999,-0.63996 h 4 l -1.11999,0.47998 4.16,-4.96002 c 0.31998,-0.32 0.79999,-0.47998 1.28,-0.47998 0.47998,0 0.79999,0.32001 0.95999,0.79999 l 4.16001,10.08002 -0.48001,-0.64002 4.16,3.20001 -1.76001,0.32001 4,-4.96002 c 0.32001,-0.47998 0.96002,-0.64001 1.60001,-0.47998 l 4,1.76001 4.16,1.59998 -1.92001,0.79998 4.32,-11.51996 c 0.16001,-0.64001 0.64002,-0.96002 1.12,-0.96002 0.48001,0 0.96002,0.15998 1.28,0.64002 l 4.16,6.71997 -0.16,-0.15998 4,4.95997 -1.44,-0.47998 4,-1.59998 -0.31998,0.32001 4,-3.36005 c 0.31998,-0.32001 0.63998,-0.32001 0.95999,-0.32001 h 4.16 c 0.48001,0 0.96,0.16004 1.12,0.64002 l 4.16,6.55999 -2.08001,-0.47998 4.16,-3.20001 C 384,655.35998 384.79999,655.35998 385.28,656 l 4.16,4.79999 -2.23999,0.16003 4.15998,-6.56 -0.15998,0.31995 4.15998,-18.07996 c 0.16,-0.64001 0.64001,-1.11999 1.28002,-1.11999 0.63999,0 1.12,0.47998 1.28,1.11999 l 4.15998,18.07996 -2.56,-0.15997 4,-9.91999 c 0.16,-0.48004 0.80002,-0.79998 1.28,-0.79998 0.64001,0 1.12002,0.31994 1.28,0.95996 l 4,11.52002 -1.75998,-0.79999 4.16,-1.76001 c 0.47998,-0.16003 1.12,0 1.44,0.32001 l 4,3.35998 L 415.84,657.91998 420,648 c 0.16,-0.47998 0.64001,-0.79999 1.12,-0.79999 0.64001,0 1.11999,0.32001 1.27999,0.79999 l 4.16001,8.15997 -2.07999,-0.47998 4.16,-3.20001 C 429.28,652 430.07999,652 430.56,652.64001 l 4,4.95997 -1.91999,-0.15998 4.15998,-3.35998 -0.47998,0.47998 4.16,-9.91999 c 0.16,-0.48004 0.63999,-0.79998 1.12,-0.79998 0.47998,0 0.95999,0.15997 1.27999,0.63995 l 4,6.56 -2.39999,0.16003 4.16,-9.91998 c 0.31998,-0.48004 0.79999,-0.80005 1.28,-0.80005 0.47998,0 0.95999,0.16003 1.28,0.64002 l 4,6.72003 -0.16,-0.16004 4.16,4.96002 -1.92001,-0.16003 4,-3.35998 c 0.64001,-0.47999 1.44,-0.47999 1.92001,0.16003 l 4.15998,4.95996 -2.4,0.47998 L 469.12,641.44 v 0.32001 l 4,-34.72003 c 0,-0.15998 0.16,-0.32001 0.16,-0.32001 l 4.16,-8.31995 c 0.16001,-0.64001 0.79999,-0.80004 1.44,-0.80004 0.63999,0.16003 0.96,0.64001 1.12,1.28002 l 4,47.83997 -1.28,-1.27997 h 4.16 l -1.27999,0.96002 4,-14.72003 v 0.16004 l 4,-89.12006 c 0.16,-0.79999 0.63998,-1.27997 1.27999,-1.27997 0.63999,-0.15997 1.28,0.32001 1.44001,0.96002 l 4.16,18.23999 -2.72,-0.32 4.16,-9.76001 c 0.15998,-0.64002 0.79999,-0.96002 1.43998,-0.96002 0.64001,0.16003 1.12002,0.64001 1.12002,1.28002 l 4.31998,64.47998 -1.44,-1.27996 h 4.16 c 0.63998,0 1.12002,0.32 1.28,0.95996 l 4,18.24005 -2.56,-0.16003 4,-13.12 c 0.16003,-0.64002 0.79999,-0.96002 1.44,-0.96002 0.47998,0 1.12,0.32 1.28003,0.96002 l 4.15998,16.64001 -2.40003,-0.48004 4,-6.55999 c 0.32001,-0.47998 0.80005,-0.63996 1.44,-0.63996 0.48004,0.15998 0.96003,0.63996 0.96003,1.12 l 4.16003,18.07995 H 530.56 l 4.15997,-18.07995 4,-36.16004 c 0,-0.79998 0.64001,-1.27997 1.44,-1.27997 0.64002,0 1.28003,0.64002 1.28003,1.27997 l 4.15998,46.23999 -0.47998,-0.95996 4.16003,3.35999 -2.08002,0.47998 4,-8.32001 c 0.32001,-0.47998 0.79999,-0.79999 1.27997,-0.79999 0.64002,0 1.12,0.48004 1.28003,0.96002 l 4,13.27997 -1.76001,-0.79999 4,-1.76 c 0.32001,-0.15998 0.79999,-0.15998 1.12,0 l 4.16003,1.60003 -1.60004,0.47998 4.16004,-4.96002 4,-4.95996 -0.16004,0.15997 4.16004,-6.71997 c 0.31994,-0.48004 0.79998,-0.64001 1.27997,-0.64001 0.64001,0.15997 0.96002,0.47998 1.11999,0.96002 l 4.32001,14.88 h -2.71997 L 584,634.88 c 0.15997,-0.32 0.32001,-0.64001 0.64001,-0.79998 0.47999,-0.16004 0.79999,-0.16004 1.12,0 l 4.15997,1.59997 -1.59997,0.32001 4,-4.96002 c 0.32,-0.32001 0.79999,-0.47998 1.27997,-0.47998 0.48004,0.15997 0.80004,0.32 0.96002,0.79998 l 4.15997,8.32001 -2.56,0.32001 4.16004,-23.03998 c 0.15997,-0.64001 0.64001,-1.11999 1.44,-1.11999 0.64001,0 1.11999,0.31994 1.27997,0.95996 l 4,19.84002 -0.47998,-0.79998 4.15997,3.35998 -2.07996,0.32001 4.15998,-6.72003 c 0.16003,-0.15998 0.32001,-0.32001 0.64001,-0.47998 l 4.15998,-1.60004 c 0.64001,-0.31995 1.44,0 1.76,0.80005 0.16004,0.63995 -0.15997,1.44 -0.79998,1.76001 l -4.15998,1.59997 0.63996,-0.64001 -4,6.72003 c -0.32001,0.32001 -0.63996,0.63996 -0.95996,0.63996 -0.48004,0 -0.79999,0 -1.12,-0.31995 l -4,-3.36005 c -0.32001,-0.15997 -0.48004,-0.47998 -0.48004,-0.79998 l -4.15997,-19.68 h 2.71997 L 598.88,640.47998 c -0.16003,0.64002 -0.64001,0.96002 -1.28002,1.12 -0.47998,0.16003 -1.12,-0.15998 -1.27997,-0.79999 l -4.16004,-8.15998 2.24005,0.15998 -4,4.96002 c -0.32,0.47998 -0.96002,0.64001 -1.60003,0.47998 l -4,-1.59998 1.76001,-0.79998 -4,11.35998 c -0.32001,0.64002 -0.79999,0.95996 -1.44,0.95996 -0.47999,0 -1.12,-0.47998 -1.27997,-0.95996 l -4.16004,-14.88 2.40003,0.32 -4,6.71997 c 0,0 0,0.16004 -0.16004,0.16004 l -4,4.95996 -4.15997,4.96002 c -0.32001,0.47998 -0.96002,0.64002 -1.44,0.32001 L 560,648 h 1.12 l -4.15998,1.76001 c -0.32001,0.15997 -0.64001,0.15997 -0.96002,0 -0.47998,-0.16003 -0.64002,-0.47998 -0.79999,-0.79999 l -4,-13.28003 2.39997,0.16004 -4,8.31994 c -0.15998,0.48004 -0.47998,0.64002 -0.95997,0.80005 -0.32,0 -0.79998,0 -1.11999,-0.32001 l -4.16004,-3.35998 c -0.15997,-0.16003 -0.32,-0.48004 -0.47998,-0.96002 l -4.16003,-46.08002 H 541.44 l -4.15997,36.47998 -4,18.08002 C 533.12,649.44 532.64001,649.91998 532,649.91998 c -0.64002,0 -1.28003,-0.47998 -1.44,-1.11999 l -4,-18.08002 2.40002,0.32001 -4,6.56 c -0.32001,0.48004 -0.80005,0.80004 -1.44,0.64001 -0.48004,0 -0.96002,-0.47998 -1.12,-0.95996 l -4.16003,-16.64002 2.72003,0.15998 -4.16003,13.11999 C 516.64001,634.56 516,634.88 515.52002,634.88 c -0.64002,0 -1.12,-0.47998 -1.28003,-0.96002 l -4.16,-18.23999 1.44,1.12 h -4.16 c -0.63999,0 -1.28,-0.64002 -1.28,-1.27997 l -4.31998,-64.48004 2.72,0.48004 -4.16,9.91998 c -0.16001,0.47998 -0.80002,0.79999 -1.28,0.79999 -0.64002,0 -1.12,-0.47998 -1.28,-1.11999 l -4,-18.08002 2.56,-0.32001 -4,89.28003 c 0,0.15997 0,0.15997 0,0.32001 l -4.16001,14.88 c -0.16,0.47998 -0.64001,0.95996 -1.28,0.95996 h -4.16 c -0.79999,0 -1.28,-0.47998 -1.44,-1.27997 l -4,-47.84002 2.56,0.48004 -4.16001,8.32001 0.16001,-0.48005 -4,34.72004 c 0,0 0,0.15997 0,0.15997 l -4.32001,13.28003 c -0.16,0.47998 -0.47998,0.79999 -0.95999,0.95996 -0.48001,0 -1.12,-0.15997 -1.44,-0.47998 l -4,-4.96002 1.92001,0.16003 -4,3.35999 c -0.64002,0.47998 -1.44,0.32 -1.92001,-0.15998 L 452.95999,649.44 c 0,-0.15997 0,-0.15997 -0.16,-0.15997 l -4,-6.72003 2.40002,-0.15998 -4.16,9.91999 c -0.16001,0.47998 -0.64002,0.79999 -1.12,0.79999 -0.64001,0 -1.12002,-0.15998 -1.28,-0.64002 l -4.16,-6.56 2.39999,-0.15997 -4,9.76001 c -0.16,0.32001 -0.16,0.47998 -0.32,0.63995 l -4.16001,3.36005 c -0.63998,0.47998 -1.44,0.32001 -1.91998,-0.16004 l -4,-4.95996 1.91998,0.15998 -4.32,3.35998 c -0.31998,0.16004 -0.63999,0.32001 -1.12,0.16004 -0.31998,0 -0.79999,-0.32001 -0.95999,-0.64002 l -4,-8.32 h 2.39999 l -4,9.76 c -0.16,0.47998 -0.47998,0.79999 -0.95999,0.79999 -0.32,0.16004 -0.79999,0 -1.11999,-0.15997 l -4.16001,-3.36005 1.44001,0.16004 -4.16001,1.76001 c -0.48001,0.15997 -0.79999,0.15997 -1.11999,0 -0.32001,-0.16004 -0.64002,-0.48004 -0.80002,-0.79999 l -4,-11.68005 2.56,0.16003 -4.15998,9.76001 c -0.16,0.63995 -0.80001,0.95996 -1.28,0.95996 C 400,656.32001 399.51999,656 399.35999,655.35998 l -4,-18.07995 h 2.56002 l -4,18.07995 c 0,0.16004 -0.16,0.32001 -0.16,0.48005 l -4.32001,6.55999 c -0.16,0.47998 -0.64001,0.63996 -0.95999,0.63996 -0.48001,0 -0.96002,-0.15998 -1.12002,-0.47998 l -4.15998,-4.79999 1.91999,0.15997 -4,3.20002 c -0.32001,0.16003 -0.79999,0.32 -1.12,0.16003 -0.48001,0 -0.79999,-0.16003 -0.95999,-0.48004 l -4,-6.56 L 376.16,654.88 H 372 l 0.79999,-0.32 -4,3.35998 c -0.15998,0 -0.31998,0.16004 -0.47998,0.16004 l -4,1.59997 c -0.64002,0.16004 -1.28,0 -1.60001,-0.32001 l -4,-4.95996 c -0.16,-0.16003 -0.16,-0.16003 -0.16,-0.16003 l -4,-6.71997 2.39999,-0.32001 -4.31998,11.67999 c 0,0.32001 -0.32,0.64002 -0.64001,0.79999 -0.32001,0.16004 -0.64001,0.16004 -1.12,0 l -4,-1.59997 -4.16,-1.76001 1.60001,-0.32001 -4,4.96002 c -0.48001,0.47998 -1.28,0.63996 -1.92002,0.15998 l -4.16,-3.20002 c -0.31998,-0.15997 -0.31998,-0.32 -0.47998,-0.63995 l -4,-9.92005 2.23999,0.32001 -4,4.96002 c -0.32001,0.32001 -0.64001,0.47999 -1.12,0.47999 h -4 l 1.12,-0.64002 -4.16,6.72003 c -0.16001,0.32001 -0.48001,0.47998 -0.79999,0.47998 -0.48001,0.16004 -0.80002,0 -1.12,-0.15997 l -4.32,-3.36005 -4,-3.35998 C 309.44,652.64001 309.28,652.47998 309.12,652.32001 l -4,-9.91999 c 0,-0.16003 0,-0.16003 0,-0.32 l -4.16001,-21.44001 -4,-24.79998 2.72,-0.16004 -4.32,46.23999 c 0,0.79999 -0.63999,1.28003 -1.28,1.28003 -0.63999,0 -1.28,-0.48004 -1.43998,-1.11999 l -4,-23.36005 -4.16,-117.11996 2.72,-0.16001 -4,132.15998 c 0,0.32 -0.16,0.64001 -0.32001,0.80004 l -4.16,5.12 c -0.32001,0.32001 -0.95999,0.63995 -1.44,0.47998 -0.48001,-0.15997 -0.79999,-0.47998 -0.95999,-0.96002 L 272.16,622.40002 h 2.72 l -4,21.44001 c -0.16,0.63995 -0.64001,0.95996 -1.11999,1.11999 -0.64001,0 -1.12,-0.16003 -1.44,-0.64001 l -4.16001,-6.72003 1.76001,0.64001 -4,1.60004 C 261.44,640 261.12,640 260.79999,639.84003 260.32001,639.67999 260.16,639.35998 260,639.03998 l -4.16,-16.63996 h 2.55999 l -4,19.68 c -0.15999,0.63995 -0.64,1.11999 -1.11999,1.11999 -0.64,0 -1.12,-0.16003 -1.44,-0.79999 l -4.16001,-8.16003 2.56001,-0.15997 -4,11.51996 c -0.16,0.64001 -0.8,0.96002 -1.27999,0.96002 H 240.64 c -0.48,0 -0.96001,-0.32001 -1.12,-0.79999 L 235.36,637.44 c 0,0 0,-0.15997 -0.16,-0.47998 l -4,-42.72003 -4,-39.67999 2.72,-0.15998 -4.16001,64.47998 c 0,0.47998 -0.31999,0.96003 -0.79998,1.12 l -4.32001,1.59998 c -0.31999,0.16003 -0.8,0.16003 -1.12,-0.15998 -0.32,-0.15997 -0.64,-0.47998 -0.64,-0.96002 l -4.16,-28 h 2.72 l -4,28 -4.16,28.32001 c 0,0.64001 -0.64,1.11999 -1.28,1.11999 -0.64,0 -1.12,-0.47998 -1.28,-1.11999 l -4.32001,-16.47998 0.16001,0.32 -4,-6.55999 2.40001,-0.32001 -4,14.88 c 0,0 0,0.15998 -0.16001,0.15998 l -4,8.32001 c -0.32,0.64001 -1.12001,0.96002 -1.76001,0.64001 l -4,-1.76001 c -0.31999,-0.15997 -0.64,-0.32001 -0.79999,-0.64002 l -4.16,-9.91998 0.31999,0.47998 -4,-3.35998 2.08001,-0.64002 -4,13.28003 c -0.15999,0.64002 -0.80001,0.95996 -1.28,0.95996 -0.64,0 -1.12,-0.31994 -1.28,-0.95996 l -4.16001,-13.28003 2.56002,0.16004 -4,10.07995 c 0,0 -0.16001,0.16004 -0.16001,0.16004 L 164,650.88 c -0.32001,0.47998 -0.8,0.64002 -1.28,0.64002 -0.48,0 -0.96001,-0.32001 -1.11999,-0.80005 l -4.16001,-9.91998 2.56,-0.15998 -4,11.51996 c -0.32001,0.64002 -0.8,0.96003 -1.44,0.96003 -0.48,0 -1.12,-0.47999 -1.28,-0.96003 l -4,-14.87994 0.47999,0.63995 -4.15998,-3.35998 c -0.32001,-0.15998 -0.48002,-0.32001 -0.48002,-0.64002 l -4.15998,-16.47998 2.55999,0.15998 -4,11.52002 c -0.16,0.47998 -0.8,0.79998 -1.28,0.79998 -0.63999,0 -1.12001,-0.32 -1.27999,-0.95996 L 132.8,615.84003 l 2.72,-0.16004 -4.16,16.64002 c -0.16,0.64001 -0.96001,1.11999 -1.60001,0.96002 C 128.96001,633.12 128.48,632.32001 128.64,631.67999 Z" />
        </g>
      </g>
      <g
         transform="scale(0.033263)"
         id="g3767">
        <text
           id="text3771"
           style="font-variant:normal;font-weight:normal;font-size:327.67999268px;font-family:F1;-inkscape-font-specification:F1;writing-mode:lr-tb;fill:#7f7f7f;fill-opacity:1;fill-rule:nonzero;stroke:none"
           transform="translate(3376.6399,20135)">
          <tspan
             id="tspan3769"
             y="0"
             x="0">0</tspan>
        </text>
      </g>
      <g
         transform="scale(0.033263)"
         id="g3773">
        <text
           id="text3777"
           style="font-variant:normal;font-weight:normal;font-size:327.67999268px;font-family:F1;-inkscape-font-specification:F1;writing-mode:lr-tb;fill:#7f7f7f;fill-opacity:1;fill-rule:nonzero;stroke:none"
           transform="translate(3208.3201,18894.1)">
          <tspan
             id="tspan3775"
             sodipodi:role="line"
             y="0"
             x="0 167.11679">25</tspan>
        </text>
      </g>
      <g
         transform="scale(0.033263)"
         id="g3779">
        <text
           id="text3783"
           style="font-variant:normal;font-weight:normal;font-size:327.67999268px;font-family:F1;-inkscape-font-specification:F1;writing-mode:lr-tb;fill:#7f7f7f;fill-opacity:1;fill-rule:nonzero;stroke:none"
           transform="translate(3208.3201,17653.1)">
          <tspan
             id="tspan3781"
             sodipodi:role="line"
             y="0"
             x="0 167.11679">50</tspan>
        </text>
      </g>
      <g
         transform="scale(0.033263)"
         id="g3785">
        <text
           id="text3789"
           style="font-variant:normal;font-weight:normal;font-size:327.67999268px;font-family:F1;-inkscape-font-specification:F1;writing-mode:lr-tb;fill:#7f7f7f;fill-opacity:1;fill-rule:nonzero;stroke:none"
           transform="translate(3208.3201,16412.199)">
          <tspan
             id="tspan3787"
             sodipodi:role="line"
             y="0"
             x="0 167.11679">75</tspan>
        </text>
      </g>
      <g
         transform="scale(0.033263)"
         id="g3791">
        <text
           id="text3795"
           style="font-variant:normal;font-weight:normal;font-size:327.67999268px;font-family:F1;-inkscape-font-specification:F1;writing-mode:lr-tb;fill:#7f7f7f;fill-opacity:1;fill-rule:nonzero;stroke:none"
           transform="translate(3044.8,15171)">
          <tspan
             id="tspan3793"
             sodipodi:role="line"
             y="0"
             x="0 163.84 330.95679">100</tspan>
        </text>
      </g>
      <g
         transform="scale(0.033263)"
         id="g3797">
        <text
           id="text3801"
           style="font-variant:normal;font-weight:normal;font-size:327.67999268px;font-family:F1;-inkscape-font-specification:F1;writing-mode:lr-tb;fill:#7f7f7f;fill-opacity:1;fill-rule:nonzero;stroke:none"
           transform="translate(3314.24,20563.199)">
          <tspan
             id="tspan3799"
             sodipodi:role="line"
             y="0"
             x="0 104.8576 275.25119 445.64478 524.28796 688.12799 855.24481 1019.0848 1477.8368 1582.6943 1756.3647 1930.0352 2002.1248 2169.2415 2333.0815 2500.1982 2958.9504 3063.8079 3230.9248 3411.1487 3483.2383 3650.3552 3814.1951 3981.312 4440.064 4541.6445 4715.3149 4885.7085 4964.3521 5128.1919 5295.3086 5459.1489 5917.9009 6022.7583 6189.875 6370.0991 6442.1885 6609.3057 6773.1455 6940.2622 7399.0142 7503.8721 7670.9888 7844.6592 7923.3022 8087.1421 8254.2588 8418.0986 8873.5742 8981.709 9152.1025 9325.7725 9397.8623 9568.2559 9732.0957 9899.2129 10354.688 10462.822 10629.939 10803.609 10878.976 11042.815 11213.209 11377.05 11832.524 11937.382 12111.053 12284.723 12356.812 12523.93 12687.77 12858.163 13313.638 13421.772 13588.89 13765.837 13837.926 14008.319 14172.16 14339.276">Jun 2009Jun 2010Jun 2011Jun 2012Jun 2013Jun 2014Jun 2015Jun 2016Jun 2017Jun 2018</tspan>
        </text>
      </g>
      <g
         transform="matrix(0,-0.036811,0.036811,0,0,0)"
         id="g3803">
        <text
           id="text3807"
           style="font-variant:normal;font-weight:normal;font-size:327.67999268px;font-family:F2;-inkscape-font-specification:F2;writing-mode:lr-tb;fill:#595959;fill-opacity:1;fill-rule:nonzero;stroke:none"
           transform="translate(-17690.199,2560)">
          <tspan
             id="tspan3805"
             sodipodi:role="line"
             y="0"
             x="0 88.473595 265.42081 442.36798 609.4848 760.21759 835.58398 1012.5312 1114.1119 1189.4784 1268.1216 1448.3456 1559.7567 1726.8735 1841.5615 2011.9552 2143.0271 2254.4382 2326.5278 2503.4751 2660.7615 2824.6016 2942.5664 3017.9326 3132.6208 3211.2639 3476.6848">Index of interest over time</tspan>
        </text>
      </g>
      <g
         transform="scale(0.036811)"
         id="g3809">
        <text
           id="text3813"
           style="font-variant:normal;font-weight:normal;font-size:327.67999268px;font-family:F2;-inkscape-font-specification:F2;writing-mode:lr-tb;fill:#595959;fill-opacity:1;fill-rule:nonzero;stroke:none"
           transform="translate(9905.5996,19102.699)">
          <tspan
             id="tspan3811"
             sodipodi:role="line"
             y="0"
             x="0 203.16159 363.72479 481.68958">Date</tspan>
        </text>
      </g>
      <g
         transform="scale(0.051891)"
         id="g3815">
        <text
           id="text3819"
           style="font-variant:normal;font-weight:normal;font-size:327.67999268px;font-family:F1;-inkscape-font-specification:F1;writing-mode:lr-tb;fill:#7f7f7f;fill-opacity:1;fill-rule:nonzero;stroke:none"
           transform="translate(4677.6001,9284.1602)">
          <tspan
             id="tspan3817"
             sodipodi:role="line"
             y="0"
             x="0 157.28639 330.95679 491.51999 566.88641 773.32477 946.99518 1120.6655 1277.952 1350.0416 1513.8816 1582.6943 1720.3199 1831.7312 1992.2943 2165.9648 2333.0815 2464.1536 2536.2432 2713.1904 2811.4944 2883.584 3047.4238 3217.8176 3388.2112 3561.8816 3633.9712 3712.6143 3840.4094 4099.2769 4174.6431 4348.3135 4492.4927 4656.3325 4771.0205 4839.8335 5006.9502 5170.7905 5246.1567 5380.5054 5544.3457 5701.6318 5809.7661">The Google Trends of Populism over 10 Years</tspan>
        </text>
      </g>
      <g
         transform="translate(639.03998,592.64001)"
         id="g3821">
        <g
           clip-path="url(#clipPath3827)"
           id="g3823">
          <path
             inkscape:connector-curvature="0"
             id="path3829"
             style="fill:#5b9bd5;fill-opacity:0.69922001;fill-rule:nonzero;stroke:none"
             d="M 0,0 H 23.200001 C 24,0 24.639999,0.64 24.639999,1.44 24.639999,2.24 24,2.88 23.200001,2.88 H 0 C -0.8,2.88 -1.28,2.24 -1.28,1.44 -1.28,0.64 -0.8,0 0,0 Z" />
        </g>
      </g>
      <g
         transform="scale(0.033263)"
         id="g3831">
        <text
           id="text3835"
           style="font-variant:normal;font-weight:normal;font-size:327.67999268px;font-family:F1;-inkscape-font-specification:F1;writing-mode:lr-tb;fill:#595959;fill-opacity:1;fill-rule:nonzero;stroke:none"
           transform="translate(19981.1,17951.4)">
          <tspan
             id="tspan3833"
             sodipodi:role="line"
             y="0"
             x="0 294.91199 465.3056 576.7168 658.63678 825.7536 1061.6832 1140.3264 1307.4431">Worldwide</tspan>
        </text>
      </g>
      <g
         transform="translate(639.03998,613.12)"
         id="g3837">
        <g
           clip-path="url(#clipPath3843)"
           id="g3839">
          <path
             inkscape:connector-curvature="0"
             id="path3845"
             style="fill:#cc5050;fill-opacity:0.51952999;fill-rule:nonzero;stroke:none"
             d="M 0,0 H 23.200001 C 24,0 24.639999,0.64 24.639999,1.44 24.639999,2.08 24,2.72 23.200001,2.72 H 0 C -0.8,2.72 -1.28,2.08 -1.28,1.44 -1.28,0.64 -0.8,0 0,0 Z" />
        </g>
      </g>
      <g
         transform="scale(0.033263)"
         id="g3847">
        <text
           id="text3851"
           style="font-variant:normal;font-weight:normal;font-size:327.67999268px;font-family:F1;-inkscape-font-specification:F1;writing-mode:lr-tb;fill:#595959;fill-opacity:1;fill-rule:nonzero;stroke:none"
           transform="translate(19981.1,18567)">
          <tspan
             id="tspan3849"
             sodipodi:role="line"
             y="0"
             x="0 104.8576 265.42081 432.5376 593.10077">Japan</tspan>
        </text>
      </g>
      <g
         transform="translate(67.360001,456.48001)"
         id="g3853">
        <g
           clip-path="url(#clipPath3859)"
           id="g3855">
          <path
             inkscape:connector-curvature="0"
             id="path3861"
             style="fill:#d9d9d9;fill-opacity:1;fill-rule:nonzero;stroke:none"
             d="m 0,0 c 0,-0.16 0.16,-0.32 0.32,-0.32 h 658.24 c 0.32,0 0.47998,0.16 0.47998,0.32 v 264 c 0,0.16 -0.15998,0.48001 -0.47998,0.48001 H 0.32 C 0.16,264.48001 0,264.16 0,264 Z M 0.8,264 0.32,263.51999 H 658.56 L 658.08002,264 V 0 L 658.56,0.48 H 0.32 L 0.8,0 Z" />
        </g>
      </g>
    </g>
  </g>
</svg>
